HIERARCHY
ROOT pelvis
{
  OFFSET 0 100 0
  CHANNELS 6 Xposition Yposition Zposition Zrotation Xrotation Yrotation
  JOINT pelvis_right_femur
  {
    OFFSET -10.78128 -3.44521 -0.5502486
    CHANNELS 3 Zrotation Xrotation Yrotation
    JOINT right_femur_tibia
    {
      OFFSET -0.8047443 -44.0398 -0.1307829
      CHANNELS 3 Zrotation Xrotation Yrotation
      JOINT right_tibia_foot
      {
        OFFSET 3.006224 -47.83518 -5
        CHANNELS 3 Zrotation Xrotation Yrotation
        End Site
        {
          OFFSET 0 -5 15
        }
      }
    }
  }
  JOINT pelvis_left_femur
  {
    OFFSET 10.78128 -3.44521 -0.5502486
    CHANNELS 3 Zrotation Xrotation Yrotation
    JOINT left_femur_tibia
    {
      OFFSET 0.8047443 -44.0398 -0.1307829
      CHANNELS 3 Zrotation Xrotation Yrotation
      JOINT left_tibia_foot
      {
        OFFSET -4.370144 -48.10324 -4.275266
        CHANNELS 3 Zrotation Xrotation Yrotation
        End Site
        {
          OFFSET 0 -5 15
        }
      }
    }
  }
  JOINT pelvis_spine1
  {
    OFFSET 0 6.468898 -3.129235
    CHANNELS 3 Zrotation Xrotation Yrotation
    JOINT spine1
    {
      OFFSET 0 23.15396 4.99043
      CHANNELS 3 Zrotation Xrotation Yrotation
      JOINT spine2
      {
        OFFSET 0 20.79997 -5.064912
        CHANNELS 3 Zrotation Xrotation Yrotation
        JOINT neck
        {
          OFFSET 0 14.38658 9.616178
          CHANNELS 3 Zrotation Xrotation Yrotation
          End Site
          {
            OFFSET 0 20 0
          }
        }
      }
      JOINT right_manubrium
      {
        OFFSET -5.722621 16.35077 3.967754
        CHANNELS 3 Zrotation Xrotation Yrotation
        JOINT right_clavicle
        {
          OFFSET -13.16364 1.694482 -4.693211
          CHANNELS 3 Zrotation Xrotation Yrotation
          JOINT right_humerus
          {
            OFFSET -28.5034 -0.3100689 -2.792744
            CHANNELS 3 Zrotation Xrotation Yrotation
            JOINT right_radius
            {
              OFFSET -25.15693 0.02248979 -1.271978
              CHANNELS 3 Zrotation Xrotation Yrotation
              End Site
              {
                OFFSET -15 0 0
              }
            }
          }
        }
      }
      JOINT left_manubrium
      {
        OFFSET 5.722621 16.35077 3.967754
        CHANNELS 3 Zrotation Xrotation Yrotation
        JOINT left_clavicle
        {
          OFFSET 13.16364 1.694482 -4.693211
          CHANNELS 3 Zrotation Xrotation Yrotation
          JOINT left_humerus
          {
            OFFSET 29.39168 -1.063119 -2.237045
            CHANNELS 3 Zrotation Xrotation Yrotation
            JOINT left_radius
            {
              OFFSET 24.59957 -0.9528479 0.9047498
              CHANNELS 3 Zrotation Xrotation Yrotation
              End Site
              {
                OFFSET 15 -0 -0
              }
            }
          }
        }
      }
    }
  }
}
MOTION
Frames: 9
Frame Time: 0.0416666666667
0 103.5113 0 0.9990648 -1.150031 -0.05453733 3.250968 -17.35823 8.304757 -0 36.42484 -0 -5.388292 -15.81538 -3.92465 -6.781221 12.0921 -22.91172 -0 5.41958 -0 5.815884 -18.41572 25.20593 -2.600948 -3.033689 4.06406 3.246247 7.263356 -8.524145 0.6476744 20.27367 8.851594 4.559381 -26.67284 9.818348 5.28653 -18.64201 12.40169 83.89952 33.32068 -15.55679 -0 0 18.75271 -9.987349 9.96301 5.190228 8.899354 -21.36844 4.906321 -96.37194 20.27019 22.52176 0 0 -6.335751 10.79269 19.28111 -3.119333
0.2575589 103.3535 1.560427 0.337932 -0.4326601 -0.2122657 4.171348 -19.6708 9.167851 -0 36.24238 -0 -5.25718 -14.88467 -4.250262 -6.339804 11.54341 -22.63724 -0 5.738385 -0 4.229225 -19.65944 24.54277 -2.530746 -2.915845 3.948049 3.329768 7.392178 -8.698804 0.5969635 20.06346 9.019082 4.627566 -26.93042 9.903949 5.257843 -18.59071 12.42656 84.3446 33.25839 -16.25991 -0 0 18.18671 -10.08714 9.97856 5.279584 8.920799 -21.58985 4.581363 -95.59972 20.18042 21.60041 0 0 -7.904602 10.89849 18.54546 -3.035869
0.5592842 103.0243 3.431532 -0.1296756 0.7720204 -0.3330097 5.154632 -23.9181 9.010737 -0 32.24261 -0 -5.261931 -12.72762 -4.003348 -6.102092 11.38781 -21.38032 -0 5.757597 -0 4.844341 -20.64062 23.68343 -2.412365 -2.735695 3.696028 3.507613 7.531128 -9.022634 0.5150697 19.67881 9.305444 4.726249 -27.43106 10.06695 5.121754 -18.52409 12.45469 85.11822 32.96973 -17.45413 -0 0 17.30902 -10.30169 10.00398 5.467651 8.965042 -21.96986 4.078693 -94.29692 20.00141 20.01879 0 0 -10.54091 10.92644 17.34406 -2.783809
0.8718758 102.4639 5.726907 -0.3825594 1.680413 -0.3637955 5.681012 -27.56103 8.151172 -0 27.56916 -0 -5.420695 -10.42188 -3.564425 -5.974351 11.66319 -19.94785 -0 5.856886 -0 5.540971 -21.43523 22.60893 -2.311682 -2.596995 3.438208 3.706569 7.574017 -9.332945 0.4462078 19.3042 9.569249 4.808901 -27.92564 10.23753 4.984065 -18.46097 12.47066 85.74285 32.69401 -18.4948 -0 0 16.58818 -10.42297 10.02344 5.621075 9.034431 -22.30979 3.694243 -93.11487 19.79743 18.53878 0 0 -12.97464 10.97969 16.31363 -2.627741
1.174028 101.7089 8.513466 -0.5696437 2.586678 -0.2672343 6.151916 -30.99899 7.329089 -0 22.85429 -0 -5.536461 -8.202534 -3.12258 -5.919093 12.21166 -18.62353 -0 6.316713 -0 6.321523 -22.07598 21.65505 -2.229942 -2.463469 3.187839 3.892733 7.597027 -9.62135 0.3810402 18.95422 9.813345 4.883368 -28.36803 10.38981 4.832935 -18.38795 12.46935 86.31874 32.45428 -19.45521 -0 0 15.87081 -10.58181 10.05163 5.807264 9.096127 -22.63338 3.319304 -91.93526 19.58559 17.07523 0 0 -15.37642 11.03034 15.28676 -2.470901
1.443744 100.8065 11.87855 -0.7474507 3.330028 0.006426983 6.492872 -33.78938 6.299968 -0 18.42116 -0 -5.789175 -5.903508 -2.573711 -5.881752 13.02023 -17.368 -0 7.422237 -0 6.638054 -22.5093 20.52018 -2.170036 -2.343022 2.964911 4.054281 7.606616 -9.869957 0.3238631 18.65036 10.02234 4.945937 -28.72692 10.51406 4.693498 -18.30629 12.45481 86.80762 32.28573 -20.28307 -0 0 15.1989 -10.74758 10.08936 6.001982 9.14799 -22.92033 2.976003 -90.83702 19.37861 15.72281 0 0 -17.59481 11.09601 14.33278 -2.34202
1.667676 99.8654 15.89575 -1.0339 3.911471 0.5019376 6.861735 -35.67978 5.26654 -0 14.89279 -0 -6.230061 -3.673496 -1.952217 -5.757551 13.96056 -16.27493 -0 9.527023 -0 5.990633 -22.60811 19.01139 -2.132683 -2.228492 2.788025 4.170027 7.639714 -10.06382 0.2752173 18.41512 10.18307 4.994643 -28.95904 10.59132 4.580217 -18.2119 12.4296 87.22521 32.20788 -20.97163 -0 0 14.55035 -10.9481 10.14645 6.210315 9.173652 -23.16417 2.639157 -89.8439 19.19602 14.53107 0 0 -19.55643 11.16583 13.45074 -2.212806
1.83659 99.03659 20.63116 -1.493438 4.248586 1.220354 7.317681 -36.22779 4.32666 -0 12.76308 -0 -6.901356 -1.738139 -1.336892 -5.414225 14.88571 -15.29949 -0 13.09748 -0 3.897617 -22.0437 16.82709 -2.116427 -2.118148 2.674533 4.223549 7.72446 -10.18965 0.2371174 18.26845 10.28181 5.026263 -29.03091 10.60687 4.508568 -18.10545 12.39851 87.57633 32.22736 -21.50618 -0 0 13.93074 -11.19244 10.2293 6.425214 9.160477 -23.35439 2.29928 -89.00404 19.05914 13.57162 0 0 -21.14924 11.22526 12.66877 -2.061763
1.946255 98.51366 26.10525 -2.125529 4.280351 2.059432 7.9267 -35.06445 3.783416 -0 12.44661 -0 -7.70825 -0.5402162 -1.003488 -4.719872 15.54918 -14.33282 -0 18.63571 -0 0.3343757 -20.26234 13.93215 -2.1183 -2.00877 2.639276 4.198837 7.889186 -10.23647 0.2109397 18.22818 10.30581 5.037519 -28.91359 10.54604 4.486087 -17.98919 12.36563 87.87566 32.33236 -21.88082 -0 0 13.34254 -11.50296 10.34358 6.645289 9.093702 -23.4829 1.942217 -88.35786 18.9919 12.90859 0 0 -22.27216 11.24275 12.00623 -1.848552
